<svg width="22" height="22" viewBox="0 0 22 22" fill="none" xmlns="http://www.w3.org/2000/svg">
<path d="M4.66367 4H17.3363C18.9093 4 20.2153 5.21463 20.329 6.78329L20.995 15.9774C21.0703 17.0165 20.2887 17.9198 19.2496 17.9951C19.2041 17.9984 19.1587 18 19.1132 18C17.9203 18 16.8796 17.1904 16.5866 16.0342L16.0708 14H5.92919L5.41343 16.0342C5.12031 17.1904 4.07963 18 2.88673 18C1.84472 18 1 17.1554 1 16.1136C1 16.0682 1.00165 16.0227 1.00493 15.9774L1.67095 6.78329C1.78458 5.21463 3.0906 4 4.66367 4ZM13.5005 9C14.329 9 15.0008 8.32843 15.0008 7.5C15.0008 6.67157 14.329 6 13.5005 6C12.6719 6 12.0002 6.67157 12.0002 7.5C12.0002 8.32843 12.6719 9 13.5005 9ZM17.5012 12C18.3298 12 19.0015 11.3284 19.0015 10.5C19.0015 9.6716 18.3298 9 17.5012 9C16.6727 9 16.0009 9.6716 16.0009 10.5C16.0009 11.3284 16.6727 12 17.5012 12ZM4.99887 8H2.9985V10H4.99887V12H6.99925V10H8.99962V8H6.99925V6H4.99887V8Z" fill="white"/>
</svg>
